<svg width="87" height="15" viewBox="0 0 87 15" fill="none" xmlns="http://www.w3.org/2000/svg">
<path d="M0.293976 13.8126V10.7726H7.99398V6.21258H2.91398V3.75258L6.31398 3.67258C8.33398 3.63258 8.83398 3.05258 8.95398 0.652577H12.274V10.7726H18.514V13.8126H0.293976Z" fill="#C62726"/>
<path d="M31.921 14.0726C23.561 14.0726 21.561 10.8126 21.561 7.41258C21.561 3.31258 24.801 0.392578 31.921 0.392578C38.581 0.392578 40.841 2.65258 40.841 4.71258C40.841 4.93258 40.821 5.13258 40.801 5.25258H36.941C36.961 5.13258 36.961 5.03258 36.961 4.99258C36.961 4.03258 35.721 3.33258 32.041 3.33258C27.581 3.33258 25.841 4.89258 25.841 7.37258C25.841 7.59258 25.841 7.81258 25.881 8.03258H25.921C26.501 6.71258 28.821 6.01258 33.221 6.01258C39.821 6.01258 41.661 7.51258 41.661 9.61258C41.661 11.9726 39.501 14.0726 31.921 14.0726ZM31.901 11.1526C36.321 11.1526 37.381 10.4726 37.381 9.61258C37.381 8.83258 36.441 8.29258 31.981 8.29258C27.501 8.29258 26.241 9.17258 26.261 9.69258C26.281 10.1126 27.061 11.1526 31.901 11.1526Z" fill="#C62726"/>
<path d="M44.348 13.8126C44.348 10.3326 44.808 8.79258 51.728 7.51258C57.888 6.37258 58.188 5.99258 58.188 5.03258C58.188 4.17258 57.228 3.37258 53.728 3.37258C50.048 3.37258 48.368 4.31258 48.368 5.73258C48.368 6.05258 48.428 6.33258 48.508 6.53258H44.768C44.668 6.29258 44.588 5.85258 44.588 5.37258C44.588 2.75258 47.548 0.392578 53.808 0.392578C60.008 0.392578 62.488 2.77258 62.488 4.87258C62.488 7.23258 61.168 8.27258 54.288 9.45258C49.508 10.2726 49.508 10.3726 49.508 10.7726H63.108V13.8126H44.348Z" fill="#C62726"/>
<path d="M76.0151 14.0126C69.2351 14.0126 65.9751 11.0126 65.9751 7.17258C65.9751 3.15258 69.4751 0.452577 76.0151 0.452577C82.5551 0.452577 86.0551 3.15258 86.0551 7.17258C86.0551 11.0126 82.7951 14.0126 76.0151 14.0126ZM76.0151 10.9726C79.7951 10.9726 81.7351 9.51258 81.7351 7.19258C81.7351 4.83258 79.6751 3.49258 76.0151 3.49258C72.3551 3.49258 70.2951 4.83258 70.2951 7.19258C70.2951 9.51258 72.2351 10.9726 76.0151 10.9726Z" fill="#C62726"/>
</svg>
