<svg width="116" height="211" viewBox="0 0 116 211" fill="none" xmlns="http://www.w3.org/2000/svg">
<rect x="2.5" y="22.5" width="206" height="239" rx="37.5" stroke="url(#paint0_linear_1_210)" stroke-width="5"/>
<path d="M43.3477 22.9718L65.0559 17.0558L65.0559 28.8878L43.3477 22.9718Z" fill="#C62726"/>
<path d="M65.7435 0.062501L71.655 21.7707L59.8275 21.7707L65.7435 0.062501Z" fill="#C62726"/>
<path d="M88.6528 22.4583L66.9401 28.3698L66.9401 16.5424L88.6528 22.4583Z" fill="#C62726"/>
<path d="M66.257 45.3676L60.341 23.6549L72.1729 23.6549L66.257 45.3676Z" fill="#C62726"/>
<path d="M43.3477 154.83L65.0559 153.629L65.0559 160.746L43.3477 154.83Z" fill="#C62726"/>
<path d="M66.1597 146.609L71.8748 153.786L59.8275 154.315L66.1597 146.609Z" fill="#C62726"/>
<path d="M88.6528 154.317L66.9401 160.228L66.9401 153.629L88.6528 154.317Z" fill="#C62726"/>
<path d="M66.257 177.226L60.341 155.513L72.1729 155.513L66.257 177.226Z" fill="#C62726"/>
<path d="M62.4209 78.323L66.0322 65.5391L69.6436 78.323V154.542H62.4209V78.323Z" fill="#C62726"/>
<defs>
<linearGradient id="paint0_linear_1_210" x1="105.5" y1="20" x2="105.5" y2="264" gradientUnits="userSpaceOnUse">
<stop stop-color="#C62726"/>
<stop offset="1" stop-color="#000F1C" stop-opacity="0"/>
</linearGradient>
</defs>
</svg>
