<svg width="80" height="12" viewBox="0 0 80 12" fill="none" xmlns="http://www.w3.org/2000/svg">
<path d="M0.890625 11.6426V1.11462H4.31463V5.00262H15.2906V1.11462H18.7146V11.6426H15.2906V7.43462H4.31463V11.6426H0.890625Z" fill="#C62726"/>
<path d="M30.4638 11.8506C24.4798 11.8506 20.9277 9.75462 20.9277 6.33062C20.9277 3.03462 24.6398 0.906616 30.4638 0.906616C36.2878 0.906616 39.9998 3.03462 39.9998 6.33062C39.9998 9.75462 36.4478 11.8506 30.4638 11.8506ZM30.4638 9.41862C34.3198 9.41862 36.5118 8.28262 36.5118 6.34662C36.5118 4.52262 34.1598 3.33862 30.4638 3.33862C26.7678 3.33862 24.4158 4.52262 24.4158 6.34662C24.4158 8.28262 26.6077 9.41862 30.4638 9.41862Z" fill="#C62726"/>
<path d="M42.2031 11.6426V1.11462H47.6911L52.5391 8.09062H52.5551L57.3231 1.11462H62.6511V11.6426H59.2271V3.59462H59.2111L53.7231 11.6426H51.0671L45.4831 3.59462H45.4671V11.6426H42.2031Z" fill="#C62726"/>
<path d="M65.2812 11.6426V1.11462H79.0093V3.54662H68.7053V5.45062H76.7213V7.24262H68.7053V9.21062H79.2173V11.6426H65.2812Z" fill="#C62726"/>
</svg>
