<svg width="65" height="130" viewBox="0 0 65 130" fill="none" xmlns="http://www.w3.org/2000/svg">
<path d="M47.5151 4.61101L51.1031 1.92001C54.9671 4.68001 59.5211 8.82001 61.6601 11.649L57.8651 14.754C55.7951 11.856 51.3101 7.57801 47.5151 4.61101ZM1.49212 17.376H62.9711V22.206H1.49212V17.376ZM22.8131 34.35H36.7511V38.973H22.8131V34.35ZM7.01212 4.68001H33.3701V9.44101H7.01212V4.68001ZM0.664124 57.948C9.97912 56.499 24.8831 53.877 38.7521 51.393L39.0971 56.154C25.9871 58.638 11.7731 61.26 1.97512 63.054L0.664124 57.948ZM19.9151 24.69H24.8831V57.051H19.9151V24.69ZM6.94312 29.865H11.7731V58.707H6.94312V29.865ZM38.8901 0.88501H44.1341C43.8581 33.66 48.7571 59.052 56.8991 59.052C58.7621 59.052 59.5211 55.188 59.8661 45.942C61.0391 47.046 62.9021 48.219 64.2821 48.702C63.3851 60.708 61.5911 64.158 56.4851 64.158C43.3061 64.158 39.0971 34.902 38.8901 0.88501Z" fill="#C62726"/>
<path d="M5.21812 124.05H59.5901V129.225H5.21812V124.05ZM1.35412 91.551H63.2471V96.657H1.35412V91.551ZM29.3681 69.816H34.8191V127.914H29.3681V69.816Z" fill="#C62726"/>
</svg>
