<svg width="674" height="139" viewBox="0 0 674 139" fill="none" xmlns="http://www.w3.org/2000/svg">
<path d="M93.5273 0.929745V97.1077C93.5273 97.1408 93.5273 97.1905 93.5273 97.2567C93.2293 100.237 92.6331 103.152 91.7389 106C91.6727 106.232 91.6064 106.447 91.5402 106.646C89.7186 112.21 86.887 117.261 83.0451 121.798C82.8795 121.997 82.7139 122.195 82.5483 122.394C76.3551 129.217 68.8205 133.886 59.9445 136.404C50.2406 138.987 40.6526 138.639 31.1806 135.36C27.2725 133.936 23.6294 132.048 20.2513 129.697C20.2181 129.697 20.2016 129.697 20.2016 129.697C16.0286 126.782 12.402 123.272 9.32196 119.165C3.8573 111.614 0.992492 103.185 0.727539 93.8786C0.727539 93.6136 0.727539 93.3321 0.727539 93.034V9.52416C0.727539 9.52416 1.20777 9.55728 2.16823 9.62352C3.12868 9.65664 4.37064 9.57384 5.89412 9.37512C7.45072 9.14329 9.17292 8.67962 11.0607 7.98412C14.2402 6.89119 17.2871 4.65565 20.2016 1.2775V93.8786H20.2513C20.2513 94.0442 20.2347 94.2098 20.2016 94.3754V101.43C20.8971 107.06 22.8677 112.111 26.1134 116.582C29.3922 121.02 33.5983 124.563 38.7318 127.213C43.8652 129.829 49.4955 131.138 55.6225 131.138C60.4579 131.138 64.9952 130.31 69.2345 128.654C73.4737 126.965 77.2162 124.646 80.4619 121.699C81.1905 120.937 81.886 120.125 82.5483 119.264C83.575 118.006 84.5189 116.665 85.38 115.24C88.2945 110.537 90.2154 105.487 91.1428 100.088C91.3084 99.0617 91.4408 98.0516 91.5402 97.058C91.5402 97.0249 91.5402 96.9918 91.5402 96.9587V0.929745H93.5273Z" fill="url(#paint0_linear_1_137)"/>
<path d="M215.836 0.432958C215.836 1.75772 215.836 7.83508 215.836 18.665C215.836 29.495 215.836 41.9312 215.836 55.9737C215.836 69.9831 215.836 82.7174 215.836 94.1766C215.836 105.603 215.836 113.071 215.836 116.582C215.836 117.343 215.836 121.467 215.836 128.952C215.008 129.68 214.18 130.409 213.352 131.138C211.663 132.661 209.842 134.102 207.888 135.46C205.934 136.818 203.93 137.612 201.877 137.844C199.856 138.076 197.836 137.281 195.816 135.46C195.518 135.095 192.073 130.856 185.483 122.742C178.925 114.595 170.976 104.775 161.637 93.2824C151.237 80.3991 141.467 68.3106 132.326 57.017C123.186 45.7234 117.108 38.2219 114.094 34.5125V137.844H112.107C112.107 137.745 112.107 137.645 112.107 137.546C112.107 135.824 112.107 128.472 112.107 115.489C112.107 102.506 112.107 87.7019 112.107 71.0761C112.107 54.4171 112.107 39.4142 112.107 26.0672C112.107 12.7202 112.107 4.2251 112.107 0.581994C112.207 0.714471 112.306 0.846947 112.405 0.979424C113.101 1.8074 113.78 2.63538 114.442 3.46336C116.396 5.94729 121.546 12.3724 129.892 22.7387C138.271 33.105 147.644 44.7463 158.01 57.6628C168.41 70.5462 177.65 82.0054 185.731 92.0405C193.812 102.042 198.548 107.921 199.939 109.676C200.469 110.339 200.999 111.018 201.529 111.713C203.019 113.899 204.758 115.803 206.745 117.426C207.341 117.89 208.004 118.254 208.732 118.519C209.461 118.751 210.189 118.701 210.918 118.37C212.044 117.642 212.773 116.532 213.104 115.042C213.468 113.518 213.667 112.127 213.7 110.869C213.7 110.769 213.717 110.67 213.75 110.571C213.882 108.087 213.948 100.32 213.948 87.2713C213.982 74.2224 213.982 60.0971 213.948 44.8954C213.915 29.6606 213.899 17.5555 213.899 8.58026C213.866 4.00982 213.849 1.29406 213.849 0.432958H215.836Z" fill="url(#paint1_linear_1_137)"/>
<path d="M340.679 138.093L253.046 138.043V138.093L242.861 138.043C244.484 137.811 245.991 137.298 247.382 136.503C248.773 135.675 249.899 134.615 250.76 133.323C251.622 131.999 252.052 130.475 252.052 128.753V8.92801C252.714 8.99425 253.377 9.02737 254.039 9.02737C257.053 9.02737 259.968 8.41467 262.783 7.18926C266.26 5.6989 269.175 3.51304 271.526 0.631673V127.163C271.526 128.852 271.344 130.459 270.98 131.982C270.615 133.506 269.738 134.863 268.347 136.056C278.481 136.155 288.599 136.205 298.7 136.205C304.794 136.205 310.872 136.188 316.932 136.155C324.815 136.122 332.73 136.105 340.679 136.105V138.093ZM337.797 120.01L335.761 119.96H278.928L279.624 119.811C280.915 119.513 282.075 118.884 283.101 117.923C284.128 116.963 284.641 115.704 284.641 114.147V34.4132H296.763V34.4629H339.884V35.7048H335.761C335.065 35.7048 322.066 35.7048 296.763 35.7048V73.6097H324.136V74.8516H296.763C296.763 101.579 296.746 115.058 296.713 115.29V115.389C296.481 116.747 295.852 117.857 294.825 118.718C295.256 118.718 310.275 118.718 339.884 118.718L339.934 119.364L339.884 119.96L337.797 120.01Z" fill="url(#paint2_linear_1_137)"/>
<path d="M455.288 138.093H444.209C435.234 138.093 430.548 138.059 430.15 137.993C427.269 137.496 425.116 135.973 423.692 133.423L411.272 99.1942H360.948L346.839 138.093H344.703L394.58 0.681352H396.22L442.57 128.356C443.596 131.005 445.286 133.141 447.637 134.764C449.989 136.387 452.539 137.496 455.288 138.093ZM410.527 97.207L386.085 29.8924L361.643 97.207H410.527Z" fill="url(#paint3_linear_1_137)"/>
<path d="M549.727 84.7874C552.343 87.6687 554.33 90.8979 555.688 94.4747C557.046 98.0516 557.526 101.811 557.129 105.752C556.599 109.759 555.258 113.435 553.105 116.78C550.985 120.125 548.352 123.04 545.206 125.524C538.384 130.79 530.749 134.383 522.304 136.304C521.145 136.569 519.986 136.818 518.827 137.049C507.997 139.07 497.233 138.821 486.535 136.304C486.469 136.271 486.403 136.255 486.337 136.255C486.271 136.221 486.204 136.205 486.138 136.205C481.568 135.112 477.146 133.522 472.874 131.436C468.635 129.349 464.776 126.716 461.299 123.537C458.417 120.821 456.082 117.724 454.294 114.247C452.539 110.769 451.628 107.043 451.562 103.069V103.019C451.562 101.165 451.777 99.3267 452.207 97.5051C453.334 93.0672 455.387 89.1094 458.368 85.6319L460.057 86.5758L469.098 91.5437C467.542 95.3193 466.763 99.3267 466.763 103.566C466.763 108.997 468.022 113.998 470.539 118.569C473.056 123.139 476.467 126.948 480.773 129.995C485.078 133.009 489.963 134.963 495.428 135.857H495.478C497.1 136.056 498.74 136.205 500.396 136.304C500.595 136.304 500.893 136.304 501.29 136.304C501.721 136.304 502.168 136.288 502.631 136.255C508.758 135.923 514.273 134.284 519.174 131.336C524.076 128.389 527.984 124.497 530.899 119.662C533.846 114.793 535.32 109.428 535.32 103.566C535.32 102.506 535.27 101.479 535.171 100.486C534.144 96.081 531.147 91.908 526.179 87.9668C521.244 84.0256 515.448 80.4488 508.792 77.2362C504.751 75.5471 500.727 74.0237 496.72 72.6658C492.745 71.3079 489.384 70.2315 486.635 69.4367C486.039 69.2711 485.443 69.1055 484.846 68.9399C483.985 68.708 483.124 68.4431 482.263 68.145C478.587 66.9196 475.093 65.2636 471.781 63.1771C466.846 60.1302 462.806 56.2884 459.659 51.6517C456.513 47.015 454.874 41.6994 454.741 35.7048C454.741 33.8502 454.923 32.012 455.288 30.1905C456.48 24.6596 458.914 19.8739 462.59 15.8334C466.267 11.7597 470.622 8.49747 475.656 6.04665C480.69 3.56272 485.857 1.90676 491.156 1.07878C496.918 0.184565 502.78 0.151446 508.742 0.979424C514.703 1.8074 520.333 3.57928 525.633 6.29504C530.932 8.97769 535.469 12.6539 539.245 17.3237C541.596 20.3376 543.351 23.6329 544.51 27.2098C545.67 30.7866 546.067 34.496 545.703 38.3378C545.57 39.5963 545.372 40.8549 545.107 42.1134C545.107 42.1134 544.958 41.8815 544.66 41.4179C544.395 40.9211 544.03 40.3084 543.567 39.5798C542.474 37.8576 541.016 36.1519 539.195 34.4629C537.406 32.7407 535.452 31.8961 533.333 31.9292C532.604 25.2061 530.484 19.3605 526.974 14.3927C523.463 9.4248 519.042 5.93073 513.71 3.91047C510.431 3.11561 507.119 2.61882 503.774 2.42011C498.74 2.78442 494.203 4.47349 490.162 7.48733C486.121 10.4681 482.909 14.4258 480.524 19.3605C478.14 24.2622 476.947 29.6937 476.947 35.6552C476.947 38.0397 477.146 40.3415 477.544 42.5605C478.67 46.601 480.856 50.1282 484.101 53.142C487.38 56.1559 491.139 58.7226 495.378 60.8422C499.618 62.9619 503.774 64.6841 507.848 66.0088C511.921 67.3005 515.333 68.2609 518.081 68.8902C519.605 69.1551 521.112 69.4698 522.602 69.8341C523.861 70.1322 525.086 70.4633 526.278 70.8277C530.683 72.1524 534.906 73.9574 538.947 76.2426C542.987 78.5279 546.581 81.3761 549.727 84.7874Z" fill="url(#paint4_linear_1_137)"/>
<path d="M663.888 128.256C663.888 129.879 664.203 131.254 664.832 132.38C665.462 133.472 666.223 134.367 667.118 135.062C668.045 135.758 668.956 136.288 669.85 136.652C670.744 137.016 671.506 137.265 672.135 137.397C672.764 137.53 673.079 137.596 673.079 137.596H653.108C652.644 137.596 652.197 137.563 651.767 137.496C647.693 136.635 645.259 134.151 644.464 130.045C644.431 129.68 644.414 129.299 644.414 128.902V65.363C643.189 65.363 641.964 65.3464 640.738 65.3133C639.778 65.2802 638.834 65.2636 637.906 65.2636C632.011 65.2636 626.116 65.2636 620.221 65.2636C613.365 65.2636 606.509 65.2636 599.654 65.2636C596.044 65.2636 592.417 65.2636 588.774 65.2636V128.455C588.774 130.078 589.089 131.452 589.718 132.578C590.347 133.671 591.109 134.565 592.003 135.261C592.931 135.956 593.841 136.486 594.736 136.851C595.63 137.215 596.392 137.463 597.021 137.596C597.65 137.728 597.965 137.795 597.965 137.795H577.994C577.53 137.795 577.083 137.761 576.653 137.695C572.579 136.834 570.145 134.35 569.35 130.243C569.317 129.879 569.3 129.498 569.3 129.101V8.92801C569.3 8.92801 569.78 8.96113 570.741 9.02737C571.701 9.06049 572.943 8.97769 574.467 8.77898C576.023 8.54714 577.745 8.08348 579.633 7.38798C582.813 6.29504 585.86 4.0595 588.774 0.681352V63.2765C593.245 63.2765 597.7 63.2765 602.138 63.2765C608.993 63.2765 615.849 63.2765 622.705 63.2765C628.335 63.2765 633.965 63.2765 639.595 63.2765C641.185 63.2765 642.791 63.2765 644.414 63.2765V8.7293C644.414 8.7293 644.895 8.76242 645.855 8.82866C646.815 8.86178 648.057 8.77898 649.581 8.58026C651.138 8.34843 652.86 7.88476 654.748 7.18926C657.927 6.09633 660.974 3.86079 663.888 0.482637V128.256Z" fill="url(#paint5_linear_1_137)"/>
<defs>
<linearGradient id="paint0_linear_1_137" x1="10.7367" y1="46.457" x2="833.064" y2="226.341" gradientUnits="userSpaceOnUse">
<stop stop-color="#FF2A29"/>
<stop offset="1" stop-color="#950000"/>
</linearGradient>
<linearGradient id="paint1_linear_1_137" x1="10.7367" y1="46.457" x2="833.064" y2="226.341" gradientUnits="userSpaceOnUse">
<stop stop-color="#FF2A29"/>
<stop offset="1" stop-color="#950000"/>
</linearGradient>
<linearGradient id="paint2_linear_1_137" x1="10.7367" y1="46.457" x2="833.064" y2="226.341" gradientUnits="userSpaceOnUse">
<stop stop-color="#FF2A29"/>
<stop offset="1" stop-color="#950000"/>
</linearGradient>
<linearGradient id="paint3_linear_1_137" x1="10.7367" y1="46.457" x2="833.064" y2="226.341" gradientUnits="userSpaceOnUse">
<stop stop-color="#FF2A29"/>
<stop offset="1" stop-color="#950000"/>
</linearGradient>
<linearGradient id="paint4_linear_1_137" x1="10.7367" y1="46.457" x2="833.064" y2="226.341" gradientUnits="userSpaceOnUse">
<stop stop-color="#FF2A29"/>
<stop offset="1" stop-color="#950000"/>
</linearGradient>
<linearGradient id="paint5_linear_1_137" x1="10.7367" y1="46.457" x2="833.064" y2="226.341" gradientUnits="userSpaceOnUse">
<stop stop-color="#FF2A29"/>
<stop offset="1" stop-color="#950000"/>
</linearGradient>
</defs>
</svg>
