<svg width="293" height="39" viewBox="0 0 293 39" fill="none" xmlns="http://www.w3.org/2000/svg">
<g style="mix-blend-mode:exclusion">
<path d="M0.561968 12.3594V1.83141H1.45797V6.47141H8.51397V1.83141H9.40997V12.3594H8.51397V7.23941H1.45797V12.3594H0.561968Z" fill="#C3C2C2"/>
<path d="M11.8257 3.38341V1.89541H12.7697V3.38341H11.8257ZM11.8737 12.3594V4.45541H12.7377V12.3594H11.8737Z" fill="#C3C2C2"/>
<path d="M18.5946 12.4874C16.3066 12.4874 14.8186 10.8714 14.8186 8.31141C14.8186 5.97541 16.3226 4.32741 18.6746 4.32741C20.3706 4.32741 21.4746 4.99941 21.8266 6.21541H21.8426V1.27141H22.7066V12.3594H21.8426C21.8746 11.5914 21.8906 10.8234 21.9066 10.0554H21.8746C21.5706 11.4634 20.4026 12.4874 18.5946 12.4874ZM18.7066 11.7034C20.6906 11.7034 21.8426 10.2314 21.8426 8.50341V8.11941C21.8426 6.16741 20.6106 5.11141 18.7386 5.11141C16.8986 5.11141 15.6826 6.45541 15.6826 8.31141C15.6826 10.3754 16.8826 11.7034 18.7066 11.7034Z" fill="#C3C2C2"/>
<path d="M28.5633 12.4874C26.2753 12.4874 24.7873 10.8714 24.7873 8.31141C24.7873 5.97541 26.2913 4.32741 28.6433 4.32741C30.3393 4.32741 31.4433 4.99941 31.7953 6.21541H31.8113V1.27141H32.6753V12.3594H31.8113C31.8433 11.5914 31.8593 10.8234 31.8753 10.0554H31.8433C31.5393 11.4634 30.3713 12.4874 28.5633 12.4874ZM28.6753 11.7034C30.6593 11.7034 31.8113 10.2314 31.8113 8.50341V8.11941C31.8113 6.16741 30.5793 5.11141 28.7073 5.11141C26.8673 5.11141 25.6513 6.45541 25.6513 8.31141C25.6513 10.3754 26.8513 11.7034 28.6753 11.7034Z" fill="#C3C2C2"/>
<path d="M42.0841 8.02341V8.50341H35.6201C35.6361 10.5194 36.8041 11.7354 38.6121 11.7354C40.1001 11.7354 41.1561 10.9674 41.2681 9.73541H42.0841C42.0041 11.4314 40.6121 12.4874 38.6121 12.4874C36.2601 12.4874 34.7561 10.9514 34.7561 8.47141C34.7561 5.91141 36.2441 4.32741 38.5801 4.32741C40.7561 4.32741 42.0841 5.63941 42.0841 8.02341ZM41.2681 7.84741V7.76741C41.2681 6.02341 40.2441 5.07941 38.6121 5.07941C36.9641 5.07941 35.8601 6.07141 35.6521 7.84741H41.2681Z" fill="#C3C2C2"/>
<path d="M44.0746 12.3594V4.45541H44.9386L44.9066 6.64741H44.9226C45.3546 5.20741 46.5386 4.32741 48.4266 4.32741C50.5386 4.32741 51.7706 5.47941 51.7706 7.46341V12.3594H50.9066V7.62341C50.9066 6.02341 49.9786 5.11141 48.1706 5.11141C46.2506 5.11141 44.9386 6.27941 44.9386 8.31141V12.3594H44.0746Z" fill="#C3C2C2"/>
<path d="M60.3563 12.4874C58.6123 12.4874 57.4283 11.5914 57.4283 10.1354C57.4283 9.01541 58.1963 8.08741 60.2763 8.08741H63.7963V7.35141C63.7963 5.86341 62.7883 5.07941 61.0603 5.07941C59.4603 5.07941 58.4843 5.73541 58.4843 6.91941C58.4843 7.03141 58.4843 7.17541 58.5003 7.28741H57.7003C57.6843 7.19141 57.6683 6.96741 57.6683 6.80741C57.6683 5.25541 58.9963 4.32741 61.0763 4.32741C63.3003 4.32741 64.6603 5.44741 64.6603 7.41541V12.3594H63.7963C63.7963 11.9114 63.8283 11.0634 63.8283 10.3114H63.8123C63.4923 11.6394 62.2923 12.4874 60.3563 12.4874ZM60.5163 11.7354C62.5003 11.7354 63.7963 10.6474 63.7963 8.85541V8.74341H60.3563C58.8043 8.74341 58.2443 9.28741 58.2443 10.1354C58.2443 11.1274 59.1563 11.7354 60.5163 11.7354Z" fill="#C3C2C2"/>
<path d="M69.897 12.4874C67.433 12.4874 66.553 11.3354 66.553 9.71941H67.353C67.353 10.9834 68.089 11.7354 69.897 11.7354C71.641 11.7354 72.569 11.1274 72.569 10.1194C72.569 9.70341 72.425 9.35141 72.041 9.14341C71.689 8.96741 70.985 8.85541 69.769 8.74341C68.441 8.61541 67.657 8.43941 67.193 8.11941C66.761 7.81541 66.553 7.28741 66.553 6.71141C66.553 5.28741 67.865 4.32741 69.881 4.32741C72.121 4.32741 73.113 5.33541 73.113 7.14341H72.297C72.297 5.75141 71.529 5.07941 69.913 5.07941C68.409 5.07941 67.417 5.71941 67.417 6.66341C67.417 7.04741 67.529 7.44741 67.929 7.63941C68.329 7.84741 69.097 7.95941 70.249 8.08741C71.609 8.23141 72.185 8.34341 72.681 8.61541C73.177 8.90341 73.433 9.46341 73.433 10.0874C73.433 11.5914 72.169 12.4874 69.897 12.4874Z" fill="#C3C2C2"/>
<path d="M75.5143 15.5274V4.45541H76.3783L76.3463 6.69541H76.3623C76.6663 5.30341 77.8823 4.32741 79.6903 4.32741C81.9783 4.32741 83.4183 5.84741 83.4183 8.26341C83.4183 10.8714 81.9303 12.4874 79.7223 12.4874C77.8663 12.4874 76.7303 11.6074 76.3463 10.4714H76.3303C76.3463 10.9834 76.3783 11.8154 76.3783 12.1994V15.5274H75.5143ZM79.6103 11.7034C81.3383 11.7034 82.5543 10.4074 82.5543 8.27941C82.5543 6.32741 81.3863 5.11141 79.5463 5.11141C77.5943 5.11141 76.4103 6.42341 76.3783 8.39141V8.90341C76.3783 10.4714 77.5303 11.7034 79.6103 11.7034Z" fill="#C3C2C2"/>
<path d="M92.4591 8.02341V8.50341H85.9951C86.0111 10.5194 87.1791 11.7354 88.9871 11.7354C90.4751 11.7354 91.5311 10.9674 91.6431 9.73541H92.4591C92.3791 11.4314 90.9871 12.4874 88.9871 12.4874C86.6351 12.4874 85.1311 10.9514 85.1311 8.47141C85.1311 5.91141 86.6191 4.32741 88.9551 4.32741C91.1311 4.32741 92.4591 5.63941 92.4591 8.02341ZM91.6431 7.84741V7.76741C91.6431 6.02341 90.6191 5.07941 88.9871 5.07941C87.3391 5.07941 86.2351 6.07141 86.0271 7.84741H91.6431Z" fill="#C3C2C2"/>
<path d="M97.9536 12.4874C95.6976 12.4874 94.1936 10.9354 94.1936 8.40741C94.1936 5.87941 95.7296 4.32741 98.0496 4.32741C100.034 4.32741 101.442 5.55941 101.442 7.54341H100.626C100.626 6.03941 99.5376 5.11141 98.0656 5.11141C96.2736 5.11141 95.0576 6.35941 95.0576 8.40741C95.0576 10.4554 96.2416 11.7034 97.9696 11.7034C99.5216 11.7034 100.658 10.7914 100.674 9.30341H101.474C101.474 11.2714 100.018 12.4874 97.9536 12.4874Z" fill="#C3C2C2"/>
<path d="M106.27 12.4074C104.494 12.4074 103.726 11.2874 103.726 9.57541V5.22341H102.35V4.45541H103.47C103.694 4.45541 103.79 4.34341 103.806 3.95941L103.838 2.66341H104.59V4.45541H107.598V5.22341H104.59V9.52741C104.59 10.8554 105.07 11.6394 106.334 11.6394C106.846 11.6394 107.358 11.5274 107.55 11.4634V12.2154C107.326 12.2954 106.83 12.4074 106.27 12.4074Z" fill="#C3C2C2"/>
<path d="M112.272 12.4874C109.808 12.4874 108.928 11.3354 108.928 9.71941H109.728C109.728 10.9834 110.464 11.7354 112.272 11.7354C114.016 11.7354 114.944 11.1274 114.944 10.1194C114.944 9.70341 114.8 9.35141 114.416 9.14341C114.064 8.96741 113.36 8.85541 112.144 8.74341C110.816 8.61541 110.032 8.43941 109.568 8.11941C109.136 7.81541 108.928 7.28741 108.928 6.71141C108.928 5.28741 110.24 4.32741 112.256 4.32741C114.496 4.32741 115.488 5.33541 115.488 7.14341H114.672C114.672 5.75141 113.904 5.07941 112.288 5.07941C110.784 5.07941 109.792 5.71941 109.792 6.66341C109.792 7.04741 109.904 7.44741 110.304 7.63941C110.704 7.84741 111.472 7.95941 112.624 8.08741C113.984 8.23141 114.56 8.34341 115.056 8.61541C115.552 8.90341 115.808 9.46341 115.808 10.0874C115.808 11.5914 114.544 12.4874 112.272 12.4874Z" fill="#C3C2C2"/>
<path d="M125.207 12.4874C122.855 12.4874 121.287 10.9354 121.287 8.42341C121.287 5.89541 122.855 4.32741 125.207 4.32741C127.543 4.32741 129.127 5.89541 129.127 8.42341C129.127 10.9354 127.543 12.4874 125.207 12.4874ZM125.207 11.7034C127.015 11.7034 128.263 10.4554 128.263 8.42341C128.263 6.37541 127.015 5.11141 125.207 5.11141C123.399 5.11141 122.151 6.37541 122.151 8.42341C122.151 10.4554 123.399 11.7034 125.207 11.7034Z" fill="#C3C2C2"/>
<path d="M131.367 12.3594V5.22341H129.975V4.45541H131.367V3.62341C131.367 1.87941 132.327 0.967407 133.911 0.967407C134.471 0.967407 134.951 1.07941 135.223 1.17541V1.95941C134.951 1.86341 134.519 1.75141 133.991 1.75141C132.855 1.75141 132.231 2.37541 132.231 3.62341V4.45541H135.351V5.22341H132.231V12.3594H131.367Z" fill="#C3C2C2"/>
<path d="M143.817 12.4074C142.041 12.4074 141.273 11.2874 141.273 9.57541V5.22341H139.897V4.45541H141.017C141.241 4.45541 141.337 4.34341 141.353 3.95941L141.385 2.66341H142.137V4.45541H145.145V5.22341H142.137V9.52741C142.137 10.8554 142.617 11.6394 143.881 11.6394C144.393 11.6394 144.905 11.5274 145.097 11.4634V12.2154C144.873 12.2954 144.377 12.4074 143.817 12.4074Z" fill="#C3C2C2"/>
<path d="M147.046 12.3594V1.27141H147.91V4.98341C147.91 5.39941 147.878 6.29541 147.878 6.67941H147.894C148.326 5.22341 149.51 4.32741 151.398 4.32741C153.51 4.32741 154.742 5.47941 154.742 7.46341V12.3594H153.878V7.62341C153.878 6.02341 152.95 5.11141 151.158 5.11141C149.222 5.11141 147.91 6.29541 147.91 8.40741V12.3594H147.046Z" fill="#C3C2C2"/>
<path d="M163.975 8.02341V8.50341H157.511C157.527 10.5194 158.695 11.7354 160.503 11.7354C161.991 11.7354 163.047 10.9674 163.159 9.73541H163.975C163.895 11.4314 162.503 12.4874 160.503 12.4874C158.151 12.4874 156.647 10.9514 156.647 8.47141C156.647 5.91141 158.135 4.32741 160.471 4.32741C162.647 4.32741 163.975 5.63941 163.975 8.02341ZM163.159 7.84741V7.76741C163.159 6.02341 162.135 5.07941 160.503 5.07941C158.855 5.07941 157.751 6.07141 157.543 7.84741H163.159Z" fill="#C3C2C2"/>
<path d="M172.803 12.4874C170.339 12.4874 169.459 11.3354 169.459 9.71941H170.259C170.259 10.9834 170.995 11.7354 172.803 11.7354C174.547 11.7354 175.475 11.1274 175.475 10.1194C175.475 9.70341 175.331 9.35141 174.947 9.14341C174.595 8.96741 173.891 8.85541 172.675 8.74341C171.347 8.61541 170.563 8.43941 170.099 8.11941C169.667 7.81541 169.459 7.28741 169.459 6.71141C169.459 5.28741 170.771 4.32741 172.787 4.32741C175.027 4.32741 176.019 5.33541 176.019 7.14341H175.203C175.203 5.75141 174.435 5.07941 172.819 5.07941C171.315 5.07941 170.323 5.71941 170.323 6.66341C170.323 7.04741 170.435 7.44741 170.835 7.63941C171.235 7.84741 172.003 7.95941 173.155 8.08741C174.515 8.23141 175.091 8.34341 175.587 8.61541C176.083 8.90341 176.339 9.46341 176.339 10.0874C176.339 11.5914 175.075 12.4874 172.803 12.4874Z" fill="#C3C2C2"/>
<path d="M181.013 12.4874C179.269 12.4874 178.085 11.5914 178.085 10.1354C178.085 9.01541 178.853 8.08741 180.933 8.08741H184.453V7.35141C184.453 5.86341 183.445 5.07941 181.717 5.07941C180.117 5.07941 179.141 5.73541 179.141 6.91941C179.141 7.03141 179.141 7.17541 179.157 7.28741H178.357C178.341 7.19141 178.325 6.96741 178.325 6.80741C178.325 5.25541 179.653 4.32741 181.733 4.32741C183.957 4.32741 185.317 5.44741 185.317 7.41541V12.3594H184.453C184.453 11.9114 184.485 11.0634 184.485 10.3114H184.469C184.149 11.6394 182.949 12.4874 181.013 12.4874ZM181.173 11.7354C183.157 11.7354 184.453 10.6474 184.453 8.85541V8.74341H181.013C179.461 8.74341 178.901 9.28741 178.901 10.1354C178.901 11.1274 179.813 11.7354 181.173 11.7354Z" fill="#C3C2C2"/>
<path d="M187.465 12.3594V4.45541H188.329L188.297 6.59941H188.313C188.649 5.15941 189.737 4.32741 191.145 4.32741C192.681 4.32741 193.673 5.12741 193.865 6.47141H193.881C194.169 5.14341 195.289 4.32741 196.729 4.32741C198.489 4.32741 199.513 5.44741 199.513 7.39941V12.3594H198.649V7.55941C198.649 5.99141 197.897 5.11141 196.521 5.11141C194.985 5.11141 193.913 6.23141 193.913 8.21541V12.3594H193.049V7.46341C193.049 5.97541 192.297 5.11141 190.921 5.11141C189.401 5.11141 188.329 6.26341 188.329 8.27941V12.3594H187.465Z" fill="#C3C2C2"/>
<path d="M204.885 12.4874C202.709 12.4874 201.573 11.2074 201.573 9.33541V4.45541H202.437V9.20741C202.437 10.6794 203.333 11.7034 205.093 11.7034C207.013 11.7034 208.405 10.2954 208.405 8.13541V4.45541H209.269V12.3594H208.405C208.421 11.8314 208.437 10.8074 208.437 9.91141H208.421C208.069 11.4314 206.773 12.4874 204.885 12.4874Z" fill="#C3C2C2"/>
<path d="M211.496 12.3594V4.45541H212.36L212.328 6.80741H212.344C212.696 5.36741 213.672 4.32741 215.32 4.32741C217.08 4.32741 218.024 5.44741 218.024 7.44741C218.024 7.91141 217.992 8.40741 217.96 8.67941H217.16C217.192 8.43941 217.224 8.02341 217.224 7.60741C217.224 5.94341 216.552 5.11141 215.144 5.11141C213.464 5.11141 212.36 6.51941 212.36 8.67941V12.3594H211.496Z" fill="#C3C2C2"/>
<path d="M222.684 12.4874C220.94 12.4874 219.756 11.5914 219.756 10.1354C219.756 9.01541 220.524 8.08741 222.604 8.08741H226.124V7.35141C226.124 5.86341 225.116 5.07941 223.388 5.07941C221.788 5.07941 220.812 5.73541 220.812 6.91941C220.812 7.03141 220.812 7.17541 220.828 7.28741H220.028C220.012 7.19141 219.996 6.96741 219.996 6.80741C219.996 5.25541 221.324 4.32741 223.404 4.32741C225.628 4.32741 226.988 5.44741 226.988 7.41541V12.3594H226.124C226.124 11.9114 226.156 11.0634 226.156 10.3114H226.14C225.82 11.6394 224.62 12.4874 222.684 12.4874ZM222.844 11.7354C224.828 11.7354 226.124 10.6474 226.124 8.85541V8.74341H222.684C221.132 8.74341 220.572 9.28741 220.572 10.1354C220.572 11.1274 221.484 11.7354 222.844 11.7354Z" fill="#C3C2C2"/>
<path d="M229.185 3.38341V1.89541H230.129V3.38341H229.185ZM229.233 12.3594V4.45541H230.097V12.3594H229.233Z" fill="#C3C2C2"/>
<path d="M238.872 12.4874C237.128 12.4874 235.944 11.5914 235.944 10.1354C235.944 9.01541 236.712 8.08741 238.792 8.08741H242.312V7.35141C242.312 5.86341 241.304 5.07941 239.576 5.07941C237.976 5.07941 237 5.73541 237 6.91941C237 7.03141 237 7.17541 237.016 7.28741H236.216C236.2 7.19141 236.184 6.96741 236.184 6.80741C236.184 5.25541 237.512 4.32741 239.592 4.32741C241.816 4.32741 243.176 5.44741 243.176 7.41541V12.3594H242.312C242.312 11.9114 242.344 11.0634 242.344 10.3114H242.328C242.008 11.6394 240.808 12.4874 238.872 12.4874ZM239.032 11.7354C241.016 11.7354 242.312 10.6474 242.312 8.85541V8.74341H238.872C237.32 8.74341 236.76 9.28741 236.76 10.1354C236.76 11.1274 237.672 11.7354 239.032 11.7354Z" fill="#C3C2C2"/>
<path d="M245.325 12.3594V4.45541H246.189L246.157 6.64741H246.173C246.605 5.20741 247.789 4.32741 249.677 4.32741C251.789 4.32741 253.021 5.47941 253.021 7.46341V12.3594H252.157V7.62341C252.157 6.02341 251.229 5.11141 249.421 5.11141C247.501 5.11141 246.189 6.27941 246.189 8.31141V12.3594H245.325Z" fill="#C3C2C2"/>
<path d="M258.688 12.4874C256.4 12.4874 254.912 10.8714 254.912 8.31141C254.912 5.97541 256.416 4.32741 258.768 4.32741C260.464 4.32741 261.568 4.99941 261.92 6.21541H261.936V1.27141H262.8V12.3594H261.936C261.968 11.5914 261.984 10.8234 262 10.0554H261.968C261.664 11.4634 260.496 12.4874 258.688 12.4874ZM258.8 11.7034C260.784 11.7034 261.936 10.2314 261.936 8.50341V8.11941C261.936 6.16741 260.704 5.11141 258.832 5.11141C256.992 5.11141 255.776 6.45541 255.776 8.31141C255.776 10.3754 256.976 11.7034 258.8 11.7034Z" fill="#C3C2C2"/>
<path d="M271.911 12.4074C270.135 12.4074 269.367 11.2874 269.367 9.57541V5.22341H267.991V4.45541H269.111C269.335 4.45541 269.431 4.34341 269.447 3.95941L269.479 2.66341H270.231V4.45541H273.239V5.22341H270.231V9.52741C270.231 10.8554 270.711 11.6394 271.975 11.6394C272.487 11.6394 272.999 11.5274 273.191 11.4634V12.2154C272.967 12.2954 272.471 12.4074 271.911 12.4074Z" fill="#C3C2C2"/>
<path d="M275.139 12.3594V1.27141H276.003V4.98341C276.003 5.39941 275.971 6.29541 275.971 6.67941H275.987C276.419 5.22341 277.603 4.32741 279.491 4.32741C281.603 4.32741 282.835 5.47941 282.835 7.46341V12.3594H281.971V7.62341C281.971 6.02341 281.043 5.11141 279.251 5.11141C277.315 5.11141 276.003 6.29541 276.003 8.40741V12.3594H275.139Z" fill="#C3C2C2"/>
<path d="M292.068 8.02341V8.50341H285.604C285.62 10.5194 286.788 11.7354 288.596 11.7354C290.084 11.7354 291.14 10.9674 291.252 9.73541H292.068C291.988 11.4314 290.596 12.4874 288.596 12.4874C286.244 12.4874 284.74 10.9514 284.74 8.47141C284.74 5.91141 286.228 4.32741 288.564 4.32741C290.74 4.32741 292.068 5.63941 292.068 8.02341ZM291.252 7.84741V7.76741C291.252 6.02341 290.228 5.07941 288.596 5.07941C286.948 5.07941 285.844 6.07141 285.636 7.84741H291.252Z" fill="#C3C2C2"/>
<path d="M0.529968 38.5274V27.4554H1.39397L1.36197 29.6954H1.37797C1.68197 28.3034 2.89797 27.3274 4.70597 27.3274C6.99397 27.3274 8.43397 28.8474 8.43397 31.2634C8.43397 33.8714 6.94597 35.4874 4.73797 35.4874C2.88197 35.4874 1.74597 34.6074 1.36197 33.4714H1.34597C1.36197 33.9834 1.39397 34.8154 1.39397 35.1994V38.5274H0.529968ZM4.62597 34.7034C6.35397 34.7034 7.56997 33.4074 7.56997 31.2794C7.56997 29.3274 6.40197 28.1114 4.56197 28.1114C2.60997 28.1114 1.42597 29.4234 1.39397 31.3914V31.9034C1.39397 33.4714 2.54597 34.7034 4.62597 34.7034Z" fill="#C3C2C2"/>
<path d="M14.0667 35.4874C11.7147 35.4874 10.1467 33.9354 10.1467 31.4234C10.1467 28.8954 11.7147 27.3274 14.0667 27.3274C16.4027 27.3274 17.9867 28.8954 17.9867 31.4234C17.9867 33.9354 16.4027 35.4874 14.0667 35.4874ZM14.0667 34.7034C15.8747 34.7034 17.1227 33.4554 17.1227 31.4234C17.1227 29.3754 15.8747 28.1114 14.0667 28.1114C12.2587 28.1114 11.0107 29.3754 11.0107 31.4234C11.0107 33.4554 12.2587 34.7034 14.0667 34.7034Z" fill="#C3C2C2"/>
<path d="M22.708 35.4074C20.932 35.4074 20.164 34.2874 20.164 32.5754V28.2234H18.788V27.4554H19.908C20.132 27.4554 20.228 27.3434 20.244 26.9594L20.276 25.6634H21.028V27.4554H24.036V28.2234H21.028V32.5274C21.028 33.8554 21.508 34.6394 22.772 34.6394C23.284 34.6394 23.796 34.5274 23.988 34.4634V35.2154C23.764 35.2954 23.268 35.4074 22.708 35.4074Z" fill="#C3C2C2"/>
<path d="M32.3966 31.0234V31.5034H25.9326C25.9486 33.5194 27.1166 34.7354 28.9246 34.7354C30.4126 34.7354 31.4686 33.9674 31.5806 32.7354H32.3966C32.3166 34.4314 30.9246 35.4874 28.9246 35.4874C26.5726 35.4874 25.0686 33.9514 25.0686 31.4714C25.0686 28.9114 26.5566 27.3274 28.8926 27.3274C31.0686 27.3274 32.3966 28.6394 32.3966 31.0234ZM31.5806 30.8474V30.7674C31.5806 29.0234 30.5566 28.0794 28.9246 28.0794C27.2766 28.0794 26.1726 29.0714 25.9646 30.8474H31.5806Z" fill="#C3C2C2"/>
<path d="M34.3871 35.3594V27.4554H35.2511L35.2191 29.6474H35.2351C35.6671 28.2074 36.8511 27.3274 38.7391 27.3274C40.8511 27.3274 42.0831 28.4794 42.0831 30.4634V35.3594H41.2191V30.6234C41.2191 29.0234 40.2911 28.1114 38.4831 28.1114C36.5631 28.1114 35.2511 29.2794 35.2511 31.3114V35.3594H34.3871Z" fill="#C3C2C2"/>
<path d="M47.2548 35.4074C45.4788 35.4074 44.7108 34.2874 44.7108 32.5754V28.2234H43.3348V27.4554H44.4548C44.6788 27.4554 44.7748 27.3434 44.7908 26.9594L44.8228 25.6634H45.5748V27.4554H48.5828V28.2234H45.5748V32.5274C45.5748 33.8554 46.0548 34.6394 47.3188 34.6394C47.8308 34.6394 48.3428 34.5274 48.5348 34.4634V35.2154C48.3108 35.2954 47.8148 35.4074 47.2548 35.4074Z" fill="#C3C2C2"/>
<path d="M50.4351 26.3834V24.8954H51.3791V26.3834H50.4351ZM50.4831 35.3594V27.4554H51.3471V35.3594H50.4831Z" fill="#C3C2C2"/>
<path d="M56.372 35.4874C54.628 35.4874 53.444 34.5914 53.444 33.1354C53.444 32.0154 54.212 31.0874 56.292 31.0874H59.812V30.3514C59.812 28.8634 58.804 28.0794 57.076 28.0794C55.476 28.0794 54.5 28.7354 54.5 29.9194C54.5 30.0314 54.5 30.1754 54.516 30.2874H53.716C53.7 30.1914 53.684 29.9674 53.684 29.8074C53.684 28.2554 55.012 27.3274 57.092 27.3274C59.316 27.3274 60.676 28.4474 60.676 30.4154V35.3594H59.812C59.812 34.9114 59.844 34.0634 59.844 33.3114H59.828C59.508 34.6394 58.308 35.4874 56.372 35.4874ZM56.532 34.7354C58.516 34.7354 59.812 33.6474 59.812 31.8554V31.7434H56.372C54.82 31.7434 54.26 32.2874 54.26 33.1354C54.26 34.1274 55.172 34.7354 56.532 34.7354Z" fill="#C3C2C2"/>
<path d="M62.9206 35.3594V24.2714H63.7846V35.3594H62.9206Z" fill="#C3C2C2"/>
<path d="M70.3675 35.3594V28.2234H68.9755V27.4554H70.3675V26.6234C70.3675 24.8794 71.3275 23.9674 72.9115 23.9674C73.4715 23.9674 73.9515 24.0794 74.2235 24.1754V24.9594C73.9515 24.8634 73.5195 24.7514 72.9915 24.7514C71.8555 24.7514 71.2315 25.3754 71.2315 26.6234V27.4554H74.3515V28.2234H71.2315V35.3594H70.3675Z" fill="#C3C2C2"/>
<path d="M78.7542 35.4874C76.4022 35.4874 74.8342 33.9354 74.8342 31.4234C74.8342 28.8954 76.4022 27.3274 78.7542 27.3274C81.0902 27.3274 82.6742 28.8954 82.6742 31.4234C82.6742 33.9354 81.0902 35.4874 78.7542 35.4874ZM78.7542 34.7034C80.5622 34.7034 81.8102 33.4554 81.8102 31.4234C81.8102 29.3754 80.5622 28.1114 78.7542 28.1114C76.9462 28.1114 75.6982 29.3754 75.6982 31.4234C75.6982 33.4554 76.9462 34.7034 78.7542 34.7034Z" fill="#C3C2C2"/>
<path d="M84.6371 35.3594V27.4554H85.5011L85.4691 29.8074H85.4851C85.8371 28.3674 86.8131 27.3274 88.4611 27.3274C90.2211 27.3274 91.1651 28.4474 91.1651 30.4474C91.1651 30.9114 91.1331 31.4074 91.1011 31.6794H90.3011C90.3331 31.4394 90.3651 31.0234 90.3651 30.6074C90.3651 28.9434 89.6931 28.1114 88.2851 28.1114C86.6051 28.1114 85.5011 29.5194 85.5011 31.6794V35.3594H84.6371Z" fill="#C3C2C2"/>
<path d="M100.407 35.4874C98.1191 35.4874 96.6311 33.8714 96.6311 31.3114C96.6311 28.9754 98.1351 27.3274 100.487 27.3274C102.183 27.3274 103.287 27.9994 103.639 29.2154H103.655V24.2714H104.519V35.3594H103.655C103.687 34.5914 103.703 33.8234 103.719 33.0554H103.687C103.383 34.4634 102.215 35.4874 100.407 35.4874ZM100.519 34.7034C102.503 34.7034 103.655 33.2314 103.655 31.5034V31.1194C103.655 29.1674 102.423 28.1114 100.551 28.1114C98.7111 28.1114 97.4951 29.4554 97.4951 31.3114C97.4951 33.3754 98.6951 34.7034 100.519 34.7034Z" fill="#C3C2C2"/>
<path d="M109.544 35.4874C107.8 35.4874 106.616 34.5914 106.616 33.1354C106.616 32.0154 107.384 31.0874 109.464 31.0874H112.984V30.3514C112.984 28.8634 111.976 28.0794 110.248 28.0794C108.648 28.0794 107.672 28.7354 107.672 29.9194C107.672 30.0314 107.672 30.1754 107.688 30.2874H106.888C106.872 30.1914 106.856 29.9674 106.856 29.8074C106.856 28.2554 108.184 27.3274 110.264 27.3274C112.488 27.3274 113.848 28.4474 113.848 30.4154V35.3594H112.984C112.984 34.9114 113.016 34.0634 113.016 33.3114H113C112.68 34.6394 111.48 35.4874 109.544 35.4874ZM109.704 34.7354C111.688 34.7354 112.984 33.6474 112.984 31.8554V31.7434H109.544C107.992 31.7434 107.432 32.2874 107.432 33.1354C107.432 34.1274 108.344 34.7354 109.704 34.7354Z" fill="#C3C2C2"/>
<path d="M115.996 35.3594V27.4554H116.86L116.828 29.6474H116.844C117.276 28.2074 118.46 27.3274 120.348 27.3274C122.46 27.3274 123.692 28.4794 123.692 30.4634V35.3594H122.828V30.6234C122.828 29.0234 121.9 28.1114 120.092 28.1114C118.172 28.1114 116.86 29.2794 116.86 31.3114V35.3594H115.996Z" fill="#C3C2C2"/>
<path d="M130.96 34.3834C132.48 34.3834 133.344 35.0714 133.344 36.2394C133.344 37.7914 131.92 38.7354 129.536 38.7354C127.024 38.7354 125.52 37.9034 125.52 36.4474C125.52 35.5194 126.24 34.8474 127.248 34.8474V34.8314C126.848 34.5594 126.608 34.1274 126.608 33.5834C126.608 33.0234 126.832 32.6394 127.072 32.4634V32.4314C126.32 31.9354 125.904 31.1514 125.904 30.1434C125.904 28.4314 127.136 27.3274 129.12 27.3274C129.968 27.3274 130.688 27.5354 131.232 27.9034V27.8874C131.072 27.6794 130.944 27.3594 130.944 27.0074C130.944 26.3514 131.44 25.9514 132.272 25.9514C132.624 25.9514 132.848 26.0154 132.96 26.0634V26.7834C132.864 26.7354 132.656 26.6714 132.368 26.6714C131.84 26.6714 131.52 26.9114 131.52 27.3914C131.52 27.6954 131.632 28.0634 131.792 28.4314C132.144 28.8954 132.336 29.4714 132.336 30.1434C132.336 31.8554 131.104 32.9594 129.12 32.9594C128.544 32.9594 128.048 32.8634 127.616 32.7034C127.472 32.8314 127.36 33.1194 127.36 33.4554C127.36 34.0314 127.728 34.3834 128.416 34.3834H130.96ZM129.12 28.0794C127.648 28.0794 126.752 28.8794 126.752 30.1434C126.752 31.4074 127.648 32.2074 129.12 32.2074C130.592 32.2074 131.488 31.4074 131.488 30.1434C131.488 28.8794 130.592 28.0794 129.12 28.0794ZM129.536 37.9834C131.568 37.9834 132.48 37.3114 132.48 36.3194C132.48 35.5514 131.92 35.1354 130.848 35.1354H128.416C127.136 35.1354 126.384 35.5674 126.384 36.4154C126.384 37.4554 127.584 37.9834 129.536 37.9834Z" fill="#C3C2C2"/>
<path d="M141.631 31.0234V31.5034H135.167C135.183 33.5194 136.351 34.7354 138.159 34.7354C139.647 34.7354 140.703 33.9674 140.815 32.7354H141.631C141.551 34.4314 140.159 35.4874 138.159 35.4874C135.807 35.4874 134.303 33.9514 134.303 31.4714C134.303 28.9114 135.791 27.3274 138.127 27.3274C140.303 27.3274 141.631 28.6394 141.631 31.0234ZM140.815 30.8474V30.7674C140.815 29.0234 139.791 28.0794 138.159 28.0794C136.511 28.0794 135.407 29.0714 135.199 30.8474H140.815Z" fill="#C3C2C2"/>
<path d="M143.621 35.3594V27.4554H144.485L144.453 29.8074H144.469C144.821 28.3674 145.797 27.3274 147.445 27.3274C149.205 27.3274 150.149 28.4474 150.149 30.4474C150.149 30.9114 150.117 31.4074 150.085 31.6794H149.285C149.317 31.4394 149.349 31.0234 149.349 30.6074C149.349 28.9434 148.677 28.1114 147.269 28.1114C145.589 28.1114 144.485 29.5194 144.485 31.6794V35.3594H143.621Z" fill="#C3C2C2"/>
<path d="M158.559 35.4874C156.815 35.4874 155.631 34.5914 155.631 33.1354C155.631 32.0154 156.399 31.0874 158.479 31.0874H161.999V30.3514C161.999 28.8634 160.991 28.0794 159.263 28.0794C157.663 28.0794 156.687 28.7354 156.687 29.9194C156.687 30.0314 156.687 30.1754 156.703 30.2874H155.903C155.887 30.1914 155.871 29.9674 155.871 29.8074C155.871 28.2554 157.199 27.3274 159.279 27.3274C161.503 27.3274 162.863 28.4474 162.863 30.4154V35.3594H161.999C161.999 34.9114 162.031 34.0634 162.031 33.3114H162.015C161.695 34.6394 160.495 35.4874 158.559 35.4874ZM158.719 34.7354C160.703 34.7354 161.999 33.6474 161.999 31.8554V31.7434H158.559C157.007 31.7434 156.447 32.2874 156.447 33.1354C156.447 34.1274 157.359 34.7354 158.719 34.7354Z" fill="#C3C2C2"/>
<path d="M165.012 35.3594V27.4554H165.876L165.844 29.6474H165.86C166.292 28.2074 167.476 27.3274 169.364 27.3274C171.476 27.3274 172.708 28.4794 172.708 30.4634V35.3594H171.844V30.6234C171.844 29.0234 170.916 28.1114 169.108 28.1114C167.188 28.1114 165.876 29.2794 165.876 31.3114V35.3594H165.012Z" fill="#C3C2C2"/>
<path d="M178.376 35.4874C176.088 35.4874 174.6 33.8714 174.6 31.3114C174.6 28.9754 176.104 27.3274 178.456 27.3274C180.152 27.3274 181.256 27.9994 181.608 29.2154H181.624V24.2714H182.488V35.3594H181.624C181.656 34.5914 181.672 33.8234 181.688 33.0554H181.656C181.352 34.4634 180.184 35.4874 178.376 35.4874ZM178.488 34.7034C180.472 34.7034 181.624 33.2314 181.624 31.5034V31.1194C181.624 29.1674 180.392 28.1114 178.52 28.1114C176.68 28.1114 175.464 29.4554 175.464 31.3114C175.464 33.3754 176.664 34.7034 178.488 34.7034Z" fill="#C3C2C2"/>
<path d="M191.663 35.4874C189.199 35.4874 188.319 34.3354 188.319 32.7194H189.119C189.119 33.9834 189.855 34.7354 191.663 34.7354C193.407 34.7354 194.335 34.1274 194.335 33.1194C194.335 32.7034 194.191 32.3514 193.807 32.1434C193.455 31.9674 192.751 31.8554 191.535 31.7434C190.207 31.6154 189.423 31.4394 188.959 31.1194C188.527 30.8154 188.319 30.2874 188.319 29.7114C188.319 28.2874 189.631 27.3274 191.647 27.3274C193.887 27.3274 194.879 28.3354 194.879 30.1434H194.063C194.063 28.7514 193.295 28.0794 191.679 28.0794C190.175 28.0794 189.183 28.7194 189.183 29.6634C189.183 30.0474 189.295 30.4474 189.695 30.6394C190.095 30.8474 190.863 30.9594 192.015 31.0874C193.375 31.2314 193.951 31.3434 194.447 31.6154C194.943 31.9034 195.199 32.4634 195.199 33.0874C195.199 34.5914 193.935 35.4874 191.663 35.4874Z" fill="#C3C2C2"/>
<path d="M204.256 31.0234V31.5034H197.792C197.808 33.5194 198.976 34.7354 200.784 34.7354C202.272 34.7354 203.328 33.9674 203.44 32.7354H204.256C204.176 34.4314 202.784 35.4874 200.784 35.4874C198.432 35.4874 196.928 33.9514 196.928 31.4714C196.928 28.9114 198.416 27.3274 200.752 27.3274C202.928 27.3274 204.256 28.6394 204.256 31.0234ZM203.44 30.8474V30.7674C203.44 29.0234 202.416 28.0794 200.784 28.0794C199.136 28.0794 198.032 29.0714 197.824 30.8474H203.44Z" fill="#C3C2C2"/>
<path d="M209.75 35.4874C207.494 35.4874 205.99 33.9354 205.99 31.4074C205.99 28.8794 207.526 27.3274 209.846 27.3274C211.83 27.3274 213.238 28.5594 213.238 30.5434H212.422C212.422 29.0394 211.334 28.1114 209.862 28.1114C208.07 28.1114 206.854 29.3594 206.854 31.4074C206.854 33.4554 208.038 34.7034 209.766 34.7034C211.318 34.7034 212.454 33.7914 212.47 32.3034H213.27C213.27 34.2714 211.814 35.4874 209.75 35.4874Z" fill="#C3C2C2"/>
<path d="M215.309 35.3594V27.4554H216.173L216.141 29.8074H216.157C216.509 28.3674 217.485 27.3274 219.133 27.3274C220.893 27.3274 221.837 28.4474 221.837 30.4474C221.837 30.9114 221.805 31.4074 221.773 31.6794H220.973C221.005 31.4394 221.037 31.0234 221.037 30.6074C221.037 28.9434 220.365 28.1114 218.957 28.1114C217.277 28.1114 216.173 29.5194 216.173 31.6794V35.3594H215.309Z" fill="#C3C2C2"/>
<path d="M230.881 31.0234V31.5034H224.417C224.433 33.5194 225.601 34.7354 227.409 34.7354C228.897 34.7354 229.953 33.9674 230.065 32.7354H230.881C230.801 34.4314 229.409 35.4874 227.409 35.4874C225.057 35.4874 223.553 33.9514 223.553 31.4714C223.553 28.9114 225.041 27.3274 227.377 27.3274C229.553 27.3274 230.881 28.6394 230.881 31.0234ZM230.065 30.8474V30.7674C230.065 29.0234 229.041 28.0794 227.409 28.0794C225.761 28.0794 224.657 29.0714 224.449 30.8474H230.065Z" fill="#C3C2C2"/>
<path d="M236.375 35.4874C234.119 35.4874 232.615 33.9354 232.615 31.4074C232.615 28.8794 234.151 27.3274 236.471 27.3274C238.455 27.3274 239.863 28.5594 239.863 30.5434H239.047C239.047 29.0394 237.959 28.1114 236.487 28.1114C234.695 28.1114 233.479 29.3594 233.479 31.4074C233.479 33.4554 234.663 34.7034 236.391 34.7034C237.943 34.7034 239.079 33.7914 239.095 32.3034H239.895C239.895 34.2714 238.439 35.4874 236.375 35.4874Z" fill="#C3C2C2"/>
<path d="M242.586 38.6714C242.202 38.6714 241.802 38.5754 241.594 38.4794V37.7434C241.786 37.8074 242.138 37.9034 242.49 37.9034C243.45 37.9034 243.834 37.3594 244.666 35.3594H244.378L240.778 27.4554H241.802L244.97 34.5114H245.002L247.802 27.4554H248.698L245.498 35.4714C244.538 37.9194 243.978 38.6714 242.586 38.6714Z" fill="#C3C2C2"/>
</g>
</svg>
