<svg width="1123" height="139" viewBox="0 0 1123 139" fill="none" xmlns="http://www.w3.org/2000/svg">
<path d="M13.6817 1.05091H110.853V3.03807C107.872 3.13742 104.875 3.15397 101.861 3.08773C100.371 3.05461 98.8806 3.03807 97.3903 3.03807H65.2482V129.023C65.2482 130.646 65.5628 132.02 66.1921 133.147C66.8213 134.239 67.5831 135.134 68.4773 135.829C69.4046 136.525 70.3154 137.055 71.2096 137.419C72.1038 137.783 72.8656 138.032 73.4948 138.164C74.1241 138.297 74.4387 138.363 74.4387 138.363H54.4679C54.0042 138.363 53.5571 138.33 53.1266 138.263C49.0529 137.402 46.6352 134.918 45.8735 130.812C45.8072 130.447 45.7741 130.066 45.7741 129.669V3.03807H0.21875V1.05091C3.19947 0.984675 6.18019 0.968112 9.16091 1.00123C10.6844 1.03435 12.1913 1.05091 13.6817 1.05091Z" fill="url(#paint0_linear_1_138)"/>
<path d="M211.304 128.775C211.304 130.398 211.618 131.772 212.247 132.898C212.877 133.991 213.638 134.885 214.533 135.581C215.46 136.276 216.371 136.806 217.265 137.171C218.159 137.535 218.921 137.783 219.55 137.916C220.179 138.048 220.494 138.114 220.494 138.114H200.523C200.06 138.114 199.612 138.081 199.182 138.015C195.108 137.154 192.674 134.67 191.879 130.563C191.846 130.199 191.829 129.818 191.829 129.421V65.8816C190.604 65.8816 189.379 65.865 188.153 65.8319C187.193 65.7988 186.249 65.7822 185.322 65.7822C179.426 65.7822 173.531 65.7822 167.636 65.7822C160.78 65.7822 153.925 65.7822 147.069 65.7822C143.459 65.7822 139.832 65.7822 136.189 65.7822V128.974C136.189 130.596 136.504 131.971 137.133 133.097C137.762 134.19 138.524 135.084 139.418 135.78C140.346 136.475 141.257 137.005 142.151 137.369C143.045 137.734 143.807 137.982 144.436 138.114C145.065 138.247 145.38 138.313 145.38 138.313H125.409C124.945 138.313 124.498 138.28 124.068 138.214C119.994 137.353 117.56 134.869 116.765 130.762C116.732 130.398 116.715 130.017 116.715 129.619V9.4466C116.715 9.4466 117.196 9.47973 118.156 9.54597C119.116 9.57909 120.358 9.49629 121.882 9.29757C123.438 9.06574 125.161 8.60207 127.048 7.90657C130.228 6.81363 133.275 4.5781 136.189 1.19995V63.7951C140.66 63.7951 145.115 63.7951 149.553 63.7951C156.409 63.7951 163.264 63.7951 170.12 63.7951C175.75 63.7951 181.38 63.7951 187.011 63.7951C188.6 63.7951 190.207 63.7951 191.829 63.7951V9.24789C191.829 9.24789 192.31 9.28102 193.27 9.34725C194.231 9.38037 195.473 9.29757 196.996 9.09886C198.553 8.86702 200.275 8.40335 202.163 7.70785C205.342 6.61492 208.389 4.37938 211.304 1.00123V128.775Z" fill="url(#paint1_linear_1_138)"/>
<path d="M313.294 138.512L310.015 138.462H218.706L219.848 138.214C221.935 137.75 223.789 136.74 225.412 135.183C227.068 133.627 227.896 131.607 227.896 129.123V1.05091H247.37V1.1006H316.622V3.08773L310.015 3.13742C308.922 3.1043 288.041 3.08773 247.37 3.08773V63.9938H291.386V65.981H247.37C247.37 108.903 247.354 130.547 247.321 130.911L247.271 131.06C246.907 133.279 245.896 135.067 244.24 136.425C244.936 136.458 269.08 136.475 316.672 136.475L316.722 137.469L316.672 138.462L313.294 138.512Z" fill="url(#paint2_linear_1_138)"/>
<path d="M554.285 1.44834H554.434C551.023 9.19822 547.628 16.9812 544.25 24.7973C543.025 27.6456 541.783 30.4938 540.524 33.3421C538.736 37.5482 536.931 41.7378 535.109 45.9108C533.387 49.852 531.681 53.7931 529.992 57.7343C524.296 70.8164 518.599 83.915 512.903 97.0301C508.432 107.264 503.977 117.514 499.539 127.781C499.208 128.51 498.893 129.255 498.595 130.017C497.403 132.832 496.178 135.614 494.919 138.363C492.733 138.363 490.564 138.363 488.411 138.363C485.563 138.263 483.245 137.088 481.456 134.836C480.86 133.941 480.363 132.964 479.966 131.905C479.867 131.706 479.767 131.507 479.668 131.308C475.23 121.008 470.792 110.725 466.354 100.458C464.665 96.5499 462.976 92.6419 461.287 88.7338C459.598 84.7926 457.909 80.868 456.219 76.96C448.834 93.8838 441.465 110.824 434.112 127.781C433.814 128.477 433.516 129.172 433.218 129.868C431.993 132.716 430.751 135.548 429.492 138.363C427.306 138.363 425.137 138.363 422.984 138.363C419.341 138.164 416.692 136.409 415.036 133.097C414.738 132.468 414.456 131.822 414.191 131.159C414.059 130.828 413.926 130.497 413.794 130.166C409.853 121.091 405.928 112.033 402.02 102.992C400.861 100.276 399.685 97.5435 398.493 94.7946C396.638 90.4891 394.783 86.1836 392.929 81.8781C391.041 77.5726 389.17 73.2672 387.315 68.9617L358.154 1.44834H379.367L433.02 125.297C439.411 110.592 445.803 95.871 452.195 81.133C453.189 78.914 454.166 76.6784 455.127 74.4263L452.742 68.9617L423.581 1.44834H444.793C444.893 1.61394 444.976 1.79609 445.042 1.99481C449.115 11.4006 453.189 20.8065 457.263 30.2123C458.356 32.6631 459.432 35.1305 460.492 37.6144C462.611 42.5161 464.731 47.4342 466.851 52.369C468.705 56.6082 470.543 60.8475 472.365 65.0867C473.292 67.2064 474.22 69.326 475.147 71.4456C480.214 83.1367 485.265 94.8112 490.299 106.469C493.015 112.729 495.731 119.005 498.446 125.297C504.242 111.983 510.038 98.653 515.834 85.306C520.735 74.0124 525.637 62.7022 530.539 51.3754H530.588C532.94 45.9108 535.308 40.4461 537.693 34.9815C542.561 23.7872 547.413 12.6095 552.248 1.44834C552.911 1.44834 553.59 1.44834 554.285 1.44834Z" fill="url(#paint3_linear_1_138)"/>
<path d="M639.385 138.611H628.306C619.331 138.611 614.645 138.578 614.247 138.512C611.366 138.015 609.213 136.492 607.789 133.941L595.369 99.7128H545.045L530.936 138.611H528.8L578.677 1.19995H580.317L626.667 128.874C627.694 131.524 629.383 133.66 631.734 135.283C634.086 136.906 636.636 138.015 639.385 138.611ZM594.624 97.7257L570.182 30.411L545.74 97.7257H594.624Z" fill="url(#paint4_linear_1_138)"/>
<path d="M659.405 138.711H640.577C642.2 138.479 643.707 137.949 645.098 137.121C646.489 136.293 647.615 135.233 648.476 133.941C649.337 132.617 649.768 131.093 649.768 129.371V9.59565L651.705 9.64532C654.752 9.64532 657.849 8.96638 660.995 7.6085C664.075 6.28373 666.824 4.18068 669.242 1.29931V16.0042C675.402 12.4604 681.794 9.26445 688.418 6.41621C695.042 3.53484 701.93 1.84577 709.084 1.34898L711.121 1.29931C716.453 1.29931 721.023 2.45848 724.832 4.77682C729.237 7.52571 732.334 11.6656 734.122 17.1965C735.347 20.9058 735.96 24.6483 735.96 28.4239C735.96 30.0467 735.844 31.653 735.612 33.2427C734.851 38.6411 733.145 43.758 730.496 48.5934C725.66 57.2375 719.252 64.6231 711.27 70.7501C702.858 77.2083 693.849 82.3584 684.245 86.2002L733.476 138.611H706.749L669.242 98.6695L669.192 130.215C669.192 133.097 668.049 135.316 665.764 136.872C663.843 138.098 661.724 138.711 659.405 138.711ZM669.242 89.3796C671.063 88.7504 672.852 87.8893 674.607 86.7963L676.246 85.8524C689.726 78.5331 700.042 69.7069 707.196 59.3737C710.574 54.5052 713.009 49.2889 714.499 43.7249C715.294 40.8104 715.691 37.8463 715.691 34.8324C715.691 27.8774 713.919 21.8828 710.376 16.8487C708.355 13.9343 705.623 11.7484 702.179 10.2911C699.132 9.06574 695.919 8.45304 692.541 8.45304L691.1 8.40336C689.908 8.40336 688.732 8.55239 687.573 8.85046C685.685 9.57908 683.847 10.4236 682.059 11.3841L680.867 12.0299C676.958 14.0502 673.083 16.1201 669.242 18.2397V89.3796Z" fill="url(#paint5_linear_1_138)"/>
<path d="M760.253 138.711H741.425C743.048 138.479 744.555 137.949 745.946 137.121C747.337 136.293 748.463 135.233 749.324 133.941C750.185 132.617 750.615 131.093 750.615 129.371V9.59565L752.553 9.64532C755.6 9.64532 758.696 8.96638 761.843 7.6085C764.923 6.28373 767.672 4.18068 770.089 1.29931V16.0042C776.25 12.4604 782.642 9.26445 789.265 6.41621C795.889 3.53484 802.778 1.84577 809.932 1.34898L811.969 1.29931C817.301 1.29931 821.871 2.45848 825.68 4.77682C830.085 7.52571 833.181 11.6656 834.97 17.1965C836.195 20.9058 836.808 24.6483 836.808 28.4239C836.808 30.0467 836.692 31.653 836.46 33.2427C835.698 38.6411 833.993 43.758 831.343 48.5934C826.508 57.2375 820.099 64.6231 812.118 70.7501C803.705 77.2083 794.697 82.3584 785.092 86.2002L834.324 138.611H807.597L770.089 98.6695L770.04 130.215C770.04 133.097 768.897 135.316 766.612 136.872C764.691 138.098 762.571 138.711 760.253 138.711ZM770.089 89.3796C771.911 88.7504 773.699 87.8893 775.455 86.7963L777.094 85.8524C790.574 78.5331 800.89 69.7069 808.044 59.3737C811.422 54.5052 813.856 49.2889 815.347 43.7249C816.142 40.8104 816.539 37.8463 816.539 34.8324C816.539 27.8774 814.767 21.8828 811.223 16.8487C809.203 13.9343 806.471 11.7484 803.026 10.2911C799.979 9.06574 796.767 8.45304 793.389 8.45304L791.948 8.40336C790.756 8.40336 789.58 8.55239 788.421 8.85046C786.533 9.57908 784.695 10.4236 782.907 11.3841L781.714 12.0299C777.806 14.0502 773.931 16.1201 770.089 18.2397V89.3796Z" fill="url(#paint6_linear_1_138)"/>
<path d="M867.211 129.123C867.211 130.745 867.526 132.12 868.155 133.246C868.784 134.339 869.546 135.233 870.44 135.929C871.368 136.624 872.279 137.154 873.173 137.518C874.067 137.883 874.829 138.131 875.458 138.263C876.087 138.396 876.402 138.462 876.402 138.462H856.431C855.967 138.462 855.52 138.429 855.09 138.363C851.016 137.502 848.582 135.018 847.787 130.911C847.754 130.547 847.737 130.166 847.737 129.768V9.59565C847.737 9.59565 848.217 9.62876 849.178 9.695C850.138 9.72812 851.38 9.64532 852.904 9.4466C854.46 9.21477 856.183 8.75111 858.07 8.05561C861.25 6.96268 864.297 4.72713 867.211 1.34898V129.123Z" fill="url(#paint7_linear_1_138)"/>
<path d="M1013.27 41.0423C1019.19 54.2568 1020.9 68.0012 1018.38 82.2756C1015.67 96.2187 1009.34 108.258 999.406 118.392C988.775 128.825 976.107 135.25 961.402 137.667C947.393 139.754 933.979 137.8 921.162 131.805C908.014 125.413 897.83 115.858 890.61 103.141C888.888 100.027 887.414 96.7983 886.189 93.4533C881.32 79.9738 880.658 66.2625 884.201 52.3193C887.911 38.5086 895.164 26.9004 905.961 17.4946C917.287 7.95625 930.32 2.50815 945.058 1.15026C959.266 0.0904515 972.563 3.05461 984.95 10.0428C997.601 17.4283 1007.04 27.7615 1013.27 41.0423ZM984.9 127.135C984.933 127.102 984.966 127.069 984.999 127.036C992.054 122.466 997.055 115.925 1000 107.413C1002.95 98.8683 1003.74 89.3299 1002.39 78.7981C1001.06 68.2331 997.485 57.6184 991.656 46.954C985.761 36.5215 978.757 27.9768 970.642 21.3198C962.528 14.6298 954.116 10.2415 945.406 8.15496C936.728 6.03534 928.614 6.61492 921.063 9.89372C921.03 9.89372 921.013 9.89372 921.013 9.89372C919.49 10.6555 918.016 11.4669 916.592 12.328C916.559 12.328 916.542 12.328 916.542 12.328C909.653 16.9646 904.768 23.5388 901.887 32.0504C899.006 40.562 898.244 50.0672 899.602 60.566C900.993 71.0316 904.57 81.5635 910.332 92.1616C916.393 102.826 923.597 111.536 931.943 118.293C940.322 125.016 948.949 129.338 957.825 131.259C966.701 133.18 974.948 132.236 982.565 128.427C982.598 128.427 982.615 128.427 982.615 128.427C983.377 128.03 984.138 127.599 984.9 127.135Z" fill="url(#paint8_linear_1_138)"/>
<path d="M1046 138.711H1027.18C1028.8 138.479 1030.31 137.949 1031.7 137.121C1033.09 136.293 1034.21 135.233 1035.08 133.941C1035.94 132.617 1036.37 131.093 1036.37 129.371V9.59565L1038.3 9.64532C1041.35 9.64532 1044.45 8.96638 1047.59 7.6085C1050.67 6.28373 1053.42 4.18068 1055.84 1.29931V16.0042C1062 12.4604 1068.39 9.26445 1075.02 6.41621C1081.64 3.53484 1088.53 1.84577 1095.68 1.34898L1097.72 1.29931C1103.05 1.29931 1107.62 2.45848 1111.43 4.77682C1115.84 7.52571 1118.93 11.6656 1120.72 17.1965C1121.95 20.9058 1122.56 24.6483 1122.56 28.4239C1122.56 30.0467 1122.44 31.653 1122.21 33.2427C1121.45 38.6411 1119.74 43.758 1117.1 48.5934C1112.26 57.2375 1105.85 64.6231 1097.87 70.7501C1089.46 77.2083 1080.45 82.3584 1070.84 86.2002L1120.08 138.611H1093.35L1055.84 98.6695L1055.79 130.215C1055.79 133.097 1054.65 135.316 1052.36 136.872C1050.44 138.098 1048.32 138.711 1046 138.711ZM1055.84 89.3796C1057.66 88.7504 1059.45 87.8893 1061.21 86.7963L1062.85 85.8524C1076.33 78.5331 1086.64 69.7069 1093.8 59.3737C1097.17 54.5052 1099.61 49.2889 1101.1 43.7249C1101.89 40.8104 1102.29 37.8463 1102.29 34.8324C1102.29 27.8774 1100.52 21.8828 1096.98 16.8487C1094.95 13.9343 1092.22 11.7484 1088.78 10.2911C1085.73 9.06574 1082.52 8.45304 1079.14 8.45304L1077.7 8.40336C1076.51 8.40336 1075.33 8.55239 1074.17 8.85046C1072.28 9.57908 1070.45 10.4236 1068.66 11.3841L1067.47 12.0299C1063.56 14.0502 1059.68 16.1201 1055.84 18.2397V89.3796Z" fill="url(#paint9_linear_1_138)"/>
<defs>
<linearGradient id="paint0_linear_1_138" x1="240.737" y1="-125.543" x2="1063.06" y2="54.3411" gradientUnits="userSpaceOnUse">
<stop stop-color="#FF2A29"/>
<stop offset="1" stop-color="#950000"/>
</linearGradient>
<linearGradient id="paint1_linear_1_138" x1="240.737" y1="-125.543" x2="1063.06" y2="54.3411" gradientUnits="userSpaceOnUse">
<stop stop-color="#FF2A29"/>
<stop offset="1" stop-color="#950000"/>
</linearGradient>
<linearGradient id="paint2_linear_1_138" x1="240.737" y1="-125.543" x2="1063.06" y2="54.3411" gradientUnits="userSpaceOnUse">
<stop stop-color="#FF2A29"/>
<stop offset="1" stop-color="#950000"/>
</linearGradient>
<linearGradient id="paint3_linear_1_138" x1="240.737" y1="-125.543" x2="1063.06" y2="54.3411" gradientUnits="userSpaceOnUse">
<stop stop-color="#FF2A29"/>
<stop offset="1" stop-color="#950000"/>
</linearGradient>
<linearGradient id="paint4_linear_1_138" x1="240.737" y1="-125.543" x2="1063.06" y2="54.3411" gradientUnits="userSpaceOnUse">
<stop stop-color="#FF2A29"/>
<stop offset="1" stop-color="#950000"/>
</linearGradient>
<linearGradient id="paint5_linear_1_138" x1="240.737" y1="-125.543" x2="1063.06" y2="54.3411" gradientUnits="userSpaceOnUse">
<stop stop-color="#FF2A29"/>
<stop offset="1" stop-color="#950000"/>
</linearGradient>
<linearGradient id="paint6_linear_1_138" x1="240.737" y1="-125.543" x2="1063.06" y2="54.3411" gradientUnits="userSpaceOnUse">
<stop stop-color="#FF2A29"/>
<stop offset="1" stop-color="#950000"/>
</linearGradient>
<linearGradient id="paint7_linear_1_138" x1="240.737" y1="-125.543" x2="1063.06" y2="54.3411" gradientUnits="userSpaceOnUse">
<stop stop-color="#FF2A29"/>
<stop offset="1" stop-color="#950000"/>
</linearGradient>
<linearGradient id="paint8_linear_1_138" x1="240.737" y1="-125.543" x2="1063.06" y2="54.3411" gradientUnits="userSpaceOnUse">
<stop stop-color="#FF2A29"/>
<stop offset="1" stop-color="#950000"/>
</linearGradient>
<linearGradient id="paint9_linear_1_138" x1="240.737" y1="-125.543" x2="1063.06" y2="54.3411" gradientUnits="userSpaceOnUse">
<stop stop-color="#FF2A29"/>
<stop offset="1" stop-color="#950000"/>
</linearGradient>
</defs>
</svg>
