<svg width="1406" height="236" viewBox="0 0 1406 236" fill="none" xmlns="http://www.w3.org/2000/svg">
<g style="mix-blend-mode:exclusion">
<path d="M103.338 219.195C103.394 221.951 103.929 224.257 104.941 226.112C106.009 227.968 107.303 229.487 108.821 230.668C110.396 231.849 111.943 232.749 113.461 233.367C114.979 233.986 116.273 234.408 117.341 234.632C118.41 234.857 118.944 234.97 118.944 234.97H85.0325C84.2451 234.97 83.4859 234.914 82.7548 234.801C75.8375 233.339 71.704 229.121 70.3542 222.148C70.298 221.529 70.2699 220.882 70.2699 220.207V108.265L0 1.29939H39.5637L70.2699 48.0335L79.8866 62.7117L102.663 97.3827C102.832 97.214 102.973 97.0171 103.085 96.7922C103.141 96.6797 103.226 96.5391 103.338 96.3704C105.419 93.1648 107.528 89.9592 109.665 86.7536C111.633 83.773 113.602 80.7642 115.57 77.7274C115.851 77.3899 116.104 77.0244 116.329 76.6307C128.195 58.5782 140.062 40.4975 151.928 22.3888C154.234 18.8458 156.568 15.3027 158.93 11.7597C161.179 8.27295 163.457 4.78617 165.763 1.29939H169.812C166.438 6.41708 163.091 11.5348 159.773 16.6525C156.736 21.2078 153.728 25.7631 150.747 30.3184C138.656 48.7646 126.536 67.2108 114.389 85.657C113.489 87.0629 112.589 88.4689 111.689 89.8749C109.327 93.4179 106.994 96.9609 104.688 100.504C104.463 100.841 104.238 101.179 104.013 101.516C103.788 101.854 103.563 102.191 103.338 102.528V219.195Z" fill="#FF0200"/>
<path d="M326.464 235.392H307.652C292.412 235.392 284.454 235.335 283.779 235.223C278.886 234.379 275.231 231.792 272.812 227.462L251.723 169.34H166.269L142.311 235.392H138.684L223.379 2.0586H226.163L304.868 218.858C306.612 223.357 309.48 226.984 313.473 229.74C317.466 232.495 321.796 234.379 326.464 235.392ZM250.458 165.965L208.954 51.6609L167.45 165.965H250.458Z" fill="#FF0200"/>
<path d="M333.887 235.054H330.513V0.624526L433.514 132.644L535.249 2.0586V218.858C535.53 225.381 538.595 229.965 544.444 232.608C545.85 233.283 547.987 233.986 550.855 234.717H516.943C515.65 234.717 514.891 234.661 514.666 234.548C511.854 234.042 509.407 232.889 507.327 231.089C504.402 228.559 502.715 225.494 502.265 221.894L502.181 220.967V49.9737L414.618 162.169L333.887 58.7469V235.054Z" fill="#FF0200"/>
<path d="M597.927 219.279C597.927 222.035 598.461 224.369 599.529 226.281C600.598 228.137 601.891 229.655 603.41 230.836C604.985 232.017 606.531 232.917 608.049 233.536C609.568 234.154 610.861 234.576 611.93 234.801C612.998 235.026 613.533 235.139 613.533 235.139H579.621C578.834 235.139 578.074 235.082 577.343 234.97C570.426 233.508 566.293 229.29 564.943 222.316C564.887 221.698 564.858 221.051 564.858 220.376V16.315C564.858 16.315 565.674 16.3713 567.305 16.4838C568.936 16.54 571.045 16.3994 573.632 16.062C576.275 15.6683 579.199 14.881 582.405 13.7C587.804 11.8441 592.978 8.04799 597.927 2.31168V219.279Z" fill="#FF0200"/>
<path d="M633.104 1.80553H798.107V5.17984C793.046 5.34855 787.956 5.37667 782.838 5.26419C780.308 5.20795 777.777 5.17984 775.246 5.17984H720.667V219.111C720.667 221.866 721.201 224.2 722.27 226.112C723.338 227.968 724.632 229.487 726.15 230.668C727.725 231.849 729.271 232.749 730.79 233.367C732.308 233.986 733.602 234.408 734.67 234.632C735.739 234.857 736.273 234.97 736.273 234.97H702.361C701.574 234.97 700.815 234.914 700.084 234.801C693.166 233.339 689.061 229.121 687.767 222.148C687.655 221.529 687.599 220.882 687.599 220.207V5.17984H610.243V1.80553C615.304 1.69306 620.366 1.66494 625.427 1.72117C628.014 1.77741 630.573 1.80553 633.104 1.80553Z" fill="#FF0200"/>
<path d="M954.506 144.876C958.949 149.769 962.323 155.252 964.629 161.326C966.935 167.399 967.75 173.783 967.075 180.475C966.176 187.28 963.898 193.522 960.242 199.202C956.643 204.882 952.172 209.831 946.83 214.049C935.245 222.991 922.282 229.093 907.941 232.355C905.972 232.805 904.004 233.227 902.036 233.62C883.646 237.051 865.368 236.629 847.203 232.355C847.091 232.299 846.978 232.27 846.866 232.27C846.753 232.214 846.641 232.186 846.528 232.186C838.768 230.33 831.26 227.631 824.005 224.088C816.806 220.545 810.255 216.074 804.35 210.675C799.457 206.063 795.492 200.805 792.455 194.9C789.475 188.995 787.928 182.668 787.816 175.92V175.835C787.816 172.686 788.181 169.565 788.912 166.472C790.824 158.936 794.311 152.215 799.373 146.31L802.241 147.913L817.594 156.349C814.951 162.76 813.629 169.565 813.629 176.763C813.629 185.986 815.766 194.478 820.04 202.239C824.314 210 830.107 216.467 837.418 221.641C844.729 226.759 853.024 230.077 862.303 231.596H862.388C865.143 231.933 867.927 232.186 870.739 232.355C871.076 232.355 871.583 232.355 872.258 232.355C872.989 232.355 873.748 232.327 874.535 232.27C884.939 231.708 894.303 228.924 902.626 223.919C910.95 218.914 917.586 212.306 922.535 204.095C927.54 195.828 930.042 186.717 930.042 176.763C930.042 174.964 929.958 173.22 929.789 171.533C928.046 164.053 922.956 156.967 914.521 150.275C906.141 143.583 896.299 137.509 884.995 132.054C878.134 129.186 871.301 126.599 864.497 124.293C857.748 121.987 852.04 120.159 847.372 118.81C846.36 118.528 845.347 118.247 844.335 117.966C842.873 117.572 841.411 117.122 839.949 116.616C833.706 114.535 827.773 111.723 822.149 108.18C813.77 103.007 806.909 96.4829 801.566 88.6095C796.223 80.7361 793.439 71.7099 793.214 61.5307C793.214 58.3814 793.524 55.2601 794.142 52.167C796.167 42.7752 800.3 34.6488 806.543 27.7877C812.785 20.8703 820.181 15.3309 828.729 11.1692C837.277 6.95134 846.05 4.13943 855.049 2.73347C864.834 1.21503 874.788 1.15879 884.911 2.56475C895.034 3.97071 904.595 6.97946 913.593 11.591C922.591 16.1463 930.296 22.3888 936.707 30.3184C940.7 35.4361 943.68 41.0318 945.649 47.1056C947.617 53.1793 948.292 59.478 947.673 66.0017C947.448 68.1387 947.111 70.2758 946.661 72.4128C946.661 72.4128 946.408 72.0192 945.902 71.2318C945.452 70.3883 944.833 69.3478 944.046 68.1106C942.19 65.1862 939.715 62.2899 936.622 59.4218C933.585 56.4974 930.267 55.0633 926.668 55.1195C925.431 43.7031 921.832 33.7771 915.87 25.3413C909.909 16.9055 902.401 10.9724 893.347 7.54185C887.779 6.19213 882.155 5.34855 876.475 5.01112C867.927 5.62974 860.222 8.4979 853.361 13.6156C846.5 18.677 841.045 25.3975 836.996 33.7771C832.947 42.1003 830.922 51.3234 830.922 61.4464C830.922 65.4955 831.26 69.4041 831.935 73.1721C833.847 80.0331 837.558 86.0225 843.07 91.1402C848.637 96.2579 855.02 100.616 862.219 104.216C869.417 107.815 876.475 110.739 883.393 112.989C890.31 115.182 896.103 116.813 900.77 117.882C903.357 118.331 905.916 118.866 908.447 119.484C910.584 119.991 912.665 120.553 914.689 121.172C922.169 123.421 929.339 126.486 936.201 130.367C943.062 134.247 949.164 139.083 954.506 144.876Z" fill="#FF0200"/>
<path d="M1141.7 2.48039V165.797C1141.7 165.853 1141.7 165.937 1141.7 166.05C1141.19 171.111 1140.18 176.06 1138.66 180.897C1138.55 181.29 1138.43 181.656 1138.32 181.993C1135.23 191.441 1130.42 200.018 1123.9 207.722C1123.61 208.06 1123.33 208.397 1123.05 208.735C1112.54 220.32 1099.74 228.249 1084.67 232.524C1068.19 236.91 1051.91 236.32 1035.83 230.752C1029.19 228.334 1023 225.128 1017.27 221.135C1017.21 221.135 1017.18 221.135 1017.18 221.135C1010.1 216.186 1003.94 210.225 998.71 203.251C989.43 190.429 984.566 176.116 984.116 160.313C984.116 159.864 984.116 159.386 984.116 158.879V17.0743C984.116 17.0743 984.931 17.1305 986.562 17.243C988.193 17.2992 990.302 17.1586 992.889 16.8212C995.532 16.4275 998.456 15.6402 1001.66 14.4592C1007.06 12.6033 1012.23 8.80721 1017.18 3.0709V160.313H1017.27C1017.27 160.595 1017.24 160.876 1017.18 161.157V173.136C1018.36 182.696 1021.71 191.273 1027.22 198.865C1032.79 206.401 1039.93 212.418 1048.65 216.917C1057.37 221.36 1066.93 223.582 1077.33 223.582C1085.54 223.582 1093.25 222.176 1100.44 219.364C1107.64 216.496 1114 212.559 1119.51 207.554C1120.75 206.26 1121.93 204.882 1123.05 203.42C1124.8 201.283 1126.4 199.005 1127.86 196.587C1132.81 188.601 1136.07 180.025 1137.65 170.858C1137.93 169.115 1138.15 167.399 1138.32 165.712C1138.32 165.656 1138.32 165.6 1138.32 165.544V2.48039H1141.7Z" fill="#FF0200"/>
<path d="M1343.06 235.054H1306.7L1240.9 88.1877L1219.9 109.024C1209.49 119.316 1204.09 125.024 1203.7 126.149C1203.59 126.711 1203.53 127.273 1203.53 127.836C1203.53 128.229 1203.56 128.651 1203.61 129.101C1203.67 129.551 1203.7 130.001 1203.7 130.451L1203.61 221.726C1203.05 225.494 1201.39 228.531 1198.64 230.836C1195.88 233.142 1192.65 234.379 1188.94 234.548H1155.02C1158.4 234.042 1161.49 232.805 1164.3 230.836C1167.12 228.868 1169.03 226.225 1170.04 222.907C1170.55 219.42 1170.8 193.129 1170.8 144.032C1170.8 107.365 1170.77 75.0842 1170.71 47.1899L1170.63 15.2184C1171.87 15.3309 1173.1 15.3871 1174.34 15.3871C1179.29 15.3871 1184.41 14.2342 1189.7 11.9284C1195.04 9.62267 1199.71 6.05153 1203.7 1.21503V120.665C1205.55 118.866 1209.58 114.845 1215.76 108.602C1262.1 62.4868 1297.98 26.4379 1323.4 0.455811L1325.76 2.90218C1312.77 15.6683 1299.87 28.575 1287.04 41.6223L1265.87 63.0491L1343.06 235.054Z" fill="#FF0200"/>
<path d="M1390.38 219.279C1390.38 222.035 1390.92 224.369 1391.98 226.281C1393.05 228.137 1394.35 229.655 1395.87 230.836C1397.44 232.017 1398.99 232.917 1400.5 233.536C1402.02 234.154 1403.32 234.576 1404.39 234.801C1405.45 235.026 1405.99 235.139 1405.99 235.139H1372.08C1371.29 235.139 1370.53 235.082 1369.8 234.97C1362.88 233.508 1358.75 229.29 1357.4 222.316C1357.34 221.698 1357.31 221.051 1357.31 220.376V16.315C1357.31 16.315 1358.13 16.3713 1359.76 16.4838C1361.39 16.54 1363.5 16.3994 1366.09 16.062C1368.73 15.6683 1371.65 14.881 1374.86 13.7C1380.26 11.8441 1385.43 8.04799 1390.38 2.31168V219.279Z" fill="#FF0200"/>
</g>
</svg>
